<?xml version="1.0" encoding="utf-8"?>
<!-- Generator: Adobe Illustrator 27.5.0, SVG Export Plug-In . SVG Version: 6.00 Build 0)  -->
<svg version="1.1" id="Layer_1" xmlns="http://www.w3.org/2000/svg" xmlns:xlink="http://www.w3.org/1999/xlink" x="0px" y="0px"
	 viewBox="0 0 2800 2000" style="enable-background:new 0 0 2800 2000;" xml:space="preserve">
<rect style="fill:#FFFFFF;" width="2800" height="2000"/>
<g>
	<g>
		<path style="fill:#FEEFDC;" d="M240.763,1862.426c0,0-271.519-638.733-88.042-902.095
			c183.476-263.361,593.884-91.163,782.188-359.589c188.305-268.426,516.63-511.529,898.069-445.688
			c381.438,65.84,922.21,420.365,729.077,1205.385c0,0-146.705,491.27-375.123,501.399
			C1958.514,1871.967,240.763,1862.426,240.763,1862.426z"/>
	</g>
	<g>
		<path style="fill:#F99247;" d="M1559.897,512.904h-172.725c-18.062,0-32.704,14.643-32.704,32.705v55.909
			c0,18.062,14.642,32.704,32.704,32.704h172.725c18.062,0,32.704-14.642,32.704-32.705v-55.908
			C1592.602,527.547,1577.959,512.904,1559.897,512.904z"/>
	</g>
	<g>
		<path style="fill:#FEC786;" d="M1506.693,512.904H1333.97c-18.062,0-32.705,14.643-32.705,32.705v55.909
			c0,18.062,14.642,32.704,32.705,32.704h172.725c18.062,0,32.704-14.642,32.704-32.705v-55.908
			C1539.398,527.547,1524.756,512.904,1506.693,512.904z"/>
	</g>
	<g>
		<circle style="fill:#E2F2F1;" cx="1421.724" cy="545.125" r="16.073"/>
	</g>
	<g>
		<path style="fill:#F99247;" d="M1080.926,1817.108l34.543-17.618c0,0,36.645-3.821,37.138,0s-20.198,32.393-23.153,32.393
			s-45.321,0-45.321,0L1080.926,1817.108z"/>
	</g>
	<g>
		<path style="fill:#F99247;" d="M1843.756,1862.426l33.498-17.083c0,0-13.136-17.072-16.749-17.072
			c-3.612,0-31.855,15.764-31.855,15.764L1843.756,1862.426z"/>
	</g>
	<g>
		<path style="fill:#F99247;" d="M1831.032,1794.11H1133.31c-25.528,0-46.222,20.694-46.222,46.222v5.011h790.166v-5.011
			C1877.254,1814.805,1856.56,1794.11,1831.032,1794.11z"/>
	</g>
	<g>
		<polygon style="fill:#F99247;" points="1668.411,1845.343 1382.648,1845.343 1280.183,1246.653 1565.945,1246.653 		"/>
	</g>
	<g>
		<path style="fill:#F99247;" d="M2254.601,573.563H664.436c-38.968,0-70.558,31.589-70.558,70.557v820.133v131.425
			c0,27.336,18.07,49.497,40.359,49.497h1650.561c22.289,0,40.358-22.161,40.358-49.497v-131.425V644.12
			C2325.157,605.153,2293.568,573.563,2254.601,573.563z"/>
	</g>
	<g>
		<polygon style="fill:#F7AB48;" points="1638.854,1845.343 1353.091,1845.343 1250.625,1246.653 1536.389,1246.653 		"/>
	</g>
	<g>
		<path style="fill:#F7AB48;" d="M2284.632,1464.253V644.121c0-38.968-31.59-70.558-70.558-70.558H623.911
			c-38.968,0-70.558,31.59-70.558,70.557v820.133H2284.632z"/>
	</g>
	<g>
		<path style="fill:#FEC786;" d="M553.353,1464.253v131.424c0,27.337,18.07,49.498,40.359,49.498h1650.56
			c22.29,0,40.359-22.161,40.359-49.498v-131.424H553.353z"/>
	</g>
	<g>
		<path style="fill:#E2F2F1;" d="M2244.105,1428.638V646.31c0-20.507-17.224-37.132-38.47-37.132H632.349
			c-21.247,0-38.47,16.624-38.47,37.132v782.328H2244.105z"/>
	</g>
	<g>
		<polygon style="fill:#FEC786;" points="2247.706,987.528 1574.305,987.528 1574.305,611.165 2213.328,609.921 2244.105,627.421 		
			"/>
	</g>
	<g>
		<path style="fill:#21111D;" d="M2244.272,1646.837H593.712c-23.171,0-42.022-22.95-42.022-51.159V644.12
			c0-39.822,32.398-72.219,72.219-72.219v3.325c-37.989,0-68.894,30.905-68.894,68.894v951.558
			c0,26.375,17.359,47.834,38.696,47.834h1650.56V1646.837z"/>
	</g>
	<g>
		
			<rect x="2158.76" y="1525.623" transform="matrix(0.5837 -0.812 0.812 0.5837 -327.363 2416.0615)" style="fill:#21111D;" width="67.546" height="3.324"/>
	</g>
	<g>
		
			<rect x="2159.365" y="1552.302" transform="matrix(0.594 -0.8045 0.8045 0.594 -359.9111 2394.8215)" style="fill:#21111D;" width="66.337" height="3.326"/>
	</g>
	<g>
		<path style="fill:#21111D;" d="M2245.769,1430.301H593.879v-3.325h1648.564V646.31c0-19.557-16.512-35.469-36.808-35.469v-3.325
			c22.129,0,40.133,17.403,40.133,38.794V1430.301z"/>
	</g>
	<g>
		<path style="fill:#F7AB48;" d="M1843.756,1862.426c0-28.295-22.938-51.232-51.232-51.232h-687.701
			c-28.295,0-51.232,22.938-51.232,51.232l0,0H1843.756z"/>
	</g>
	<g>
		<g>
			
				<rect x="1339.866" y="1673.49" transform="matrix(0.496 -0.8683 0.8683 0.496 -769.3235 2024.8688)" style="fill:#21111D;" width="39.512" height="3.326"/>
		</g>
		<g>
			
				<rect x="1344.454" y="1695.241" transform="matrix(0.5064 -0.8623 0.8623 0.5064 -790.962 2012.071)" style="fill:#21111D;" width="35.035" height="3.327"/>
		</g>
	</g>
	<g>
		<rect x="894.499" y="605.253" style="fill:#7FC6A6;" width="673.401" height="382.275"/>
	</g>
	<g>
		<rect x="901.376" y="993.933" style="fill:#FFCABA;" width="670.698" height="392.292"/>
	</g>
	<g>
		<path style="fill:#61A3C5;" d="M891.024,609.178H632.349c-21.247,0-38.47,16.624-38.47,37.132v782.328h297.145V609.178z"/>
	</g>
	<g>
		<path style="fill:#21111D;" d="M2249.094,1433.626H588.892V646.31c0-23.224,19.494-42.119,43.457-42.119h1573.287
			c23.962,0,43.458,18.895,43.458,42.119V1433.626z M598.867,1423.65h1640.251V646.31c0-17.724-15.02-32.144-33.482-32.144H632.349
			c-18.462,0-33.481,14.42-33.481,32.144V1423.65z"/>
	</g>
	<g>
		<g>
			<path style="fill:#FEC786;" d="M1252.665,676.497c1.663-11.308,12.35-20.577,23.78-20.625c1.201-0.005,2.425,0.084,3.543,0.523
				c1.272,0.499,2.334,1.419,3.562,2.02c3.001,1.468,7.007,1.073,9.205,3.59c2.374,2.717,1.065,6.926,1.766,10.465
				c0.534,2.696,2.26,4.99,3.25,7.554c1.938,5.029,0.883,10.818-1.583,15.61c-2.466,4.792-6.215,8.781-9.914,12.7
				c-3.028,3.21-6.195,6.515-10.297,8.142c-8.033,3.187-13.987-2.771-16.538-9.791
				C1256.026,697.295,1251.164,686.7,1252.665,676.497z"/>
		</g>
		<g>
			<path style="fill:#FEC786;" d="M1205.668,727.109c0,0-23.001,66.006-25.777,71.559c-2.776,5.552-16.843,31.155-11.792,61.294
				c5.051,30.14,96.119,40.847,96.119,40.847l-1.656-206.833C1262.562,693.976,1221.887,689.038,1205.668,727.109z"/>
		</g>
		<g>
			<path style="fill:#FEC786;" d="M1318.52,727.109c0,0,23.001,66.006,25.777,71.559c2.776,5.552,16.843,31.155,11.792,61.294
				c-5.051,30.14-96.119,40.847-96.119,40.847l1.656-206.833C1261.627,693.976,1302.302,689.038,1318.52,727.109z"/>
		</g>
		<g>
			<path style="fill:#FE9F73;" d="M1228.67,748.524l52.381-44.207l5.749,42.092c0,0-34.6,9.518-35.922,9.518
				C1249.556,755.927,1228.67,748.524,1228.67,748.524z"/>
		</g>
		<g>
			<path style="fill:#FEBAC7;" d="M1486.174,981.124c-19.947-46.523-40.771-91.179-49.781-97.787
				c-19.705-14.45-149.758-15.764-149.758-15.764s-94.583-4.926-144.502,3.777c0,0-55.174,2.135-82.76,59.279
				c-7.071,14.648-15.049,32.317-23.003,50.495H1486.174z"/>
		</g>
		<g>
			<g>
				<path style="fill:#FE9F73;" d="M1381.952,871.869c-42.595-3.793-92.247-4.296-92.247-4.296s-94.33-4.913-144.301,3.743
					c15.29,14.385,63.979,53.825,134.613,49.789C1332.238,918.121,1364.57,892.002,1381.952,871.869z"/>
			</g>
		</g>
		<g>
			<polygon style="fill:#FE9F73;" points="1292.854,868.287 1235.424,867.296 1238.506,820.408 1286.985,820.408 			"/>
		</g>
		<g>
			<path style="fill:#F07162;" d="M1237.229,839.833c5.531,4.637,13.092,8.341,20.221,9.268c1.175,0.024,2.396,0.035,3.639,0.039
				v0.005c0.088,0,0.168-0.002,0.255-0.002s0.167,0.002,0.255,0.002v-0.005c1.243-0.003,2.463-0.015,3.639-0.039
				c8.36-1.087,17.633-5.849,23.812-11.841l-2.065-16.852h-48.479L1237.229,839.833z"/>
		</g>
		<g>
			<path style="fill:#FE9F73;" d="M1299.351,739.294c-2.344-4.697-5.404-7.83-8.398-9.921c-6.082-2.801-16.038-6.438-28.729-7.848
				h-0.61h-0.359h-0.61c-12.691,1.411-22.647,5.047-28.729,7.848c-2.994,2.091-6.054,5.224-8.398,9.921
				c-1.116,8.66-2.481,24.638-2.736,40.599c-0.229,14.349,3.625,28.529,11.534,40.138c5.96,8.747,14.527,16.586,26.381,17.741
				c0.826,0.012,1.684,0.018,2.558,0.02v0.003c0.062,0,0.118-0.001,0.179-0.001c0.062,0,0.118,0.001,0.18,0.001v-0.003
				c0.874-0.002,1.732-0.008,2.559-0.02c11.854-1.155,20.42-8.993,26.38-17.741c7.909-11.608,11.763-25.789,11.534-40.138
				C1301.832,763.932,1300.466,747.954,1299.351,739.294z"/>
		</g>
		<g>
			<g>
				<g>
					<path style="fill:#FE9F73;" d="M1292.212,789.2c0,7.367,5.972,13.34,13.34,13.34c7.367,0,13.339-5.973,13.339-13.34
						s-5.972-13.34-13.339-13.34C1298.185,775.86,1292.212,781.833,1292.212,789.2z"/>
				</g>
			</g>
			<g>
				<g>
					<path style="fill:#F07162;" d="M1306.539,797.432c2.8,0,4.67-2.103,5.286-4.205c0.728-2.487-0.107-4.904-2.129-6.159
						c-2.878-1.786-5.495-0.742-6.918,0.152c0.574-1.42,1.448-2.458,2.609-3.096c2.613-1.433,5.838-0.386,5.871-0.375
						c0.225,0.074,0.466-0.048,0.541-0.271c0.075-0.224-0.046-0.465-0.27-0.54c-0.146-0.049-3.615-1.176-6.552,0.437
						c-1.697,0.932-2.852,2.579-3.431,4.896l-0.371,1.485l1.087-1.08c0.132-0.131,3.277-3.186,6.985-0.883
						c2.049,1.271,2.229,3.592,1.76,5.193c-0.491,1.679-1.971,3.62-4.533,3.59c-0.231-0.006-0.43,0.185-0.433,0.421
						c-0.003,0.236,0.185,0.43,0.421,0.433C1306.486,797.431,1306.513,797.432,1306.539,797.432z"/>
				</g>
			</g>
		</g>
		<g>
			<g>
				<g>
					<path style="fill:#FE9F73;" d="M1234.111,789.2c0,7.367-5.972,13.34-13.34,13.34c-7.367,0-13.339-5.973-13.339-13.34
						s5.972-13.34,13.339-13.34C1228.139,775.86,1234.111,781.833,1234.111,789.2z"/>
				</g>
			</g>
			<g>
				<g>
					<path style="fill:#F07162;" d="M1219.785,797.432c-2.8,0-4.67-2.103-5.286-4.205c-0.728-2.487,0.108-4.904,2.129-6.159
						c2.878-1.786,5.495-0.742,6.918,0.152c-0.574-1.42-1.448-2.458-2.609-3.096c-2.613-1.433-5.838-0.386-5.871-0.375
						c-0.225,0.074-0.465-0.048-0.541-0.271c-0.074-0.224,0.047-0.465,0.271-0.54c0.146-0.049,3.614-1.176,6.552,0.437
						c1.698,0.932,2.852,2.579,3.431,4.896l0.372,1.485l-1.088-1.08c-0.131-0.131-3.276-3.186-6.985-0.883
						c-2.048,1.271-2.228,3.592-1.759,5.193c0.491,1.679,1.971,3.62,4.533,3.59c0.231-0.006,0.43,0.185,0.433,0.421
						c0.003,0.236-0.185,0.43-0.421,0.433C1219.838,797.431,1219.811,797.432,1219.785,797.432z"/>
				</g>
			</g>
		</g>
		<g>
			<g>
				<path style="fill:#F07162;" d="M1259.733,802.153c0.226,0,0.428-0.157,0.478-0.387c0.056-0.264-0.112-0.523-0.375-0.581
					c-3.148-0.674-5.133-4.55-5.704-5.816c4.471-2.387,7.199-5.492,8.11-9.233c1.485-6.098-2.38-11.612-2.545-11.843
					c-0.157-0.219-0.461-0.27-0.682-0.114c-0.22,0.156-0.271,0.462-0.115,0.682c0.038,0.054,3.772,5.393,2.39,11.051
					c-0.87,3.562-3.564,6.522-8.009,8.799l-0.391,0.201l0.157,0.411c0.093,0.24,2.317,5.907,6.583,6.821
					C1259.665,802.149,1259.699,802.153,1259.733,802.153z"/>
			</g>
		</g>
		<g>
			<g>
				<path d="M1249.114,780.709c0,1.504-1.219,2.723-2.723,2.723s-2.724-1.219-2.724-2.723s1.22-2.724,2.724-2.724
					S1249.114,779.205,1249.114,780.709z"/>
			</g>
		</g>
		<g>
			<g>
				<path d="M1277.21,781.24c0,1.504,1.219,2.724,2.724,2.724c1.504,0,2.723-1.219,2.723-2.724c0-1.504-1.219-2.723-2.723-2.723
					C1278.429,778.517,1277.21,779.736,1277.21,781.24z"/>
			</g>
		</g>
		<g>
			<path style="fill:#FEC786;" d="M1214.972,776.328c0,0,49.246-23.784,53.305-54.079l10.051-14.564l-4.449,16.806
				c0,0,13.583,49.238,34.694,51.646c0,0,18.447-66.872-34.496-80.158S1210.742,735.083,1214.972,776.328z"/>
		</g>
		<g>
			
				<rect x="1094.062" y="952.717" transform="matrix(0.2246 -0.9745 0.9745 0.2246 -60.3599 1832.9073)" style="fill:#21111D;" width="54.888" height="3.326"/>
		</g>
		<g>
			
				<rect x="1396.049" y="926.936" transform="matrix(0.9745 -0.2244 0.2244 0.9745 -178.5108 337.9697)" style="fill:#21111D;" width="3.326" height="54.888"/>
		</g>
		<g>
			<path style="fill:#21111D;" d="M1277.743,970.569l-0.646-2.121c38.107-11.582,78.35-64.108,78.753-64.636l1.764,1.34
				C1357.209,905.688,1316.537,958.777,1277.743,970.569z"/>
		</g>
		<g>
			
				<rect x="1167.935" y="901.272" transform="matrix(0.5502 -0.835 0.835 0.5502 -237.6223 1387.3372)" style="fill:#21111D;" width="2.216" height="25.958"/>
		</g>
		<g>
			
				<rect x="1170.891" y="920" transform="matrix(0.646 -0.7633 0.7633 0.646 -295.2712 1223.9303)" style="fill:#21111D;" width="2.218" height="20.651"/>
		</g>
		<g>
			<g>
				<path style="fill:#FBFDFC;" d="M1253.183,807.581c0.257-0.049,16.502-0.405,16.502-0.405s-2.05,6.715-8.088,6.863
					C1255.56,814.188,1253.183,807.581,1253.183,807.581z"/>
			</g>
		</g>
		<g>
			<path style="fill:#FEC786;" d="M1291.174,775.409c-0.253,0-0.508-0.086-0.716-0.263c-6.869-5.829-16.676-2.618-16.774-2.584
				c-0.58,0.197-1.208-0.116-1.403-0.695c-0.196-0.579,0.113-1.208,0.692-1.405c0.448-0.151,11.083-3.655,18.918,2.994
				c0.468,0.396,0.525,1.095,0.129,1.562C1291.8,775.276,1291.488,775.409,1291.174,775.409z"/>
		</g>
		<g>
			<path style="fill:#FEC786;" d="M1235.649,775.196c-0.323,0-0.644-0.141-0.863-0.413c-0.385-0.477-0.31-1.173,0.167-1.559
				c7.997-6.458,18.542-2.696,18.987-2.533c0.574,0.21,0.868,0.847,0.658,1.42c-0.211,0.575-0.847,0.868-1.421,0.661
				c-0.096-0.035-9.822-3.483-16.832,2.177C1236.14,775.116,1235.895,775.196,1235.649,775.196z"/>
		</g>
		<g>
			<path style="fill:#FE9F73;" d="M1223.846,802.18c0,0,4.907,36.097,34.85,35.591L1223.846,802.18z"/>
		</g>
		<g>
			<path style="fill:#FE9F73;" d="M1299.677,801.178c0,0-4.907,37.1-34.85,36.594l21.973-50.862L1299.677,801.178z"/>
		</g>
		<g>
			<path d="M1296.018,701.062c-0.113,0-0.227-0.018-0.339-0.053c-22.876-7.344-37.514-7.03-44.195-6.19
				c-0.23,0.029-0.388,0.048-0.469,0.053c-0.63,0.023-1.132-0.421-1.174-1.03c-0.042-0.609,0.42-1.138,1.029-1.182
				c0.061-0.004,0.173-0.02,0.336-0.04c6.87-0.864,21.867-1.195,45.15,6.278c0.582,0.187,0.903,0.812,0.716,1.394
				C1296.922,700.762,1296.486,701.062,1296.018,701.062z"/>
		</g>
		<g>
			<path d="M1211.409,768.641c-0.47,0-0.906-0.301-1.056-0.772c-0.186-0.583,0.136-1.207,0.72-1.393
				c35.521-11.308,49.986-45.039,50.128-45.378c0.237-0.565,0.888-0.83,1.45-0.595c0.564,0.236,0.832,0.885,0.596,1.449
				c-0.145,0.35-14.979,35.01-51.5,46.637C1211.633,768.625,1211.521,768.641,1211.409,768.641z"/>
		</g>
	</g>
	<g>
		<g>
			<path style="fill:#F75553;" d="M1480.63,1381.134c-24.83-57.909-50.749-113.493-61.966-121.718
				c-24.527-17.987-186.407-19.622-186.407-19.622s-117.73-6.132-179.866,4.701c0,0-68.676,2.657-103.015,73.786
				c-8.802,18.231-18.732,40.226-28.632,62.853H1480.63z"/>
		</g>
		<g>
			
				<rect x="992.915" y="1346.181" transform="matrix(0.2246 -0.9744 0.9744 0.2246 -517.0403 2045.8942)" style="fill:#21111D;" width="68.322" height="3.326"/>
		</g>
		<g>
			
				<rect x="1369.216" y="1313.683" transform="matrix(0.9745 -0.2244 0.2244 0.9745 -267.4594 341.9413)" style="fill:#21111D;" width="3.326" height="68.322"/>
		</g>
		<g>
			<path style="fill:#FE9F73;" d="M1202.621,1299.888L1202.621,1299.888c-19.111,0.126-34.407-21.248-33.543-46.872l2.248-66.668
				h60.343l4.083,64.924C1237.391,1277.347,1222.117,1299.759,1202.621,1299.888z"/>
		</g>
		<g>
			<path style="fill:#F07162;" d="M1170.467,1211.801c10.673,26.265,57.787,24.115,62.693-1.737l-1.491-23.716h-60.344
				L1170.467,1211.801z"/>
		</g>
		<g>
			<path style="fill:#FE9F73;" d="M1247.061,1085.384c-2.918-5.848-6.727-9.746-10.453-12.35c-7.57-3.485-19.962-8.013-35.76-9.769
				h-0.76h-0.447h-0.76c-15.797,1.756-28.19,6.283-35.76,9.769c-3.726,2.604-7.535,6.502-10.453,12.35
				c-1.389,10.778-3.088,30.667-3.405,50.534c-0.285,17.86,4.512,35.511,14.357,49.96c7.419,10.889,18.082,20.646,32.836,22.082
				c1.029,0.017,2.097,0.023,3.185,0.025v0.004c0.077,0,0.147-0.002,0.224-0.002s0.146,0.002,0.223,0.002v-0.004
				c1.088-0.002,2.156-0.009,3.185-0.025c14.754-1.437,25.418-11.193,32.836-22.082c9.845-14.449,14.642-32.1,14.357-49.96
				C1250.149,1116.051,1248.45,1096.162,1247.061,1085.384z"/>
		</g>
		<g>
			<g>
				<g>
					<path style="fill:#FE9F73;" d="M1238.176,1147.502c0,9.171,7.434,16.604,16.604,16.604s16.604-7.434,16.604-16.604
						c0-9.17-7.434-16.604-16.604-16.604S1238.176,1138.332,1238.176,1147.502z"/>
				</g>
			</g>
			<g>
				<g>
					<path style="fill:#F07162;" d="M1256.008,1157.748c3.486,0,5.813-2.617,6.579-5.234c0.906-3.096-0.134-6.104-2.65-7.666
						c-3.583-2.224-6.84-0.923-8.611,0.189c0.714-1.768,1.802-3.061,3.247-3.854c3.253-1.785,7.267-0.481,7.308-0.468
						c0.28,0.093,0.58-0.06,0.672-0.337s-0.058-0.579-0.336-0.672c-0.182-0.062-4.499-1.465-8.155,0.544
						c-2.113,1.159-3.55,3.209-4.271,6.094l-0.462,1.85l1.354-1.344c0.164-0.164,4.079-3.966,8.694-1.1
						c2.55,1.583,2.774,4.472,2.19,6.464c-0.612,2.09-2.453,4.507-5.643,4.469c-0.288-0.007-0.535,0.23-0.539,0.525
						c-0.004,0.293,0.23,0.534,0.524,0.538C1255.942,1157.747,1255.976,1157.748,1256.008,1157.748z"/>
				</g>
			</g>
		</g>
		<g>
			<g>
				<g>
					<path style="fill:#FE9F73;" d="M1160.075,1147.502c0,9.171-7.434,16.604-16.604,16.604c-9.17,0-16.604-7.434-16.604-16.604
						c0-9.17,7.434-16.604,16.604-16.604C1152.641,1130.898,1160.075,1138.332,1160.075,1147.502z"/>
				</g>
			</g>
			<g>
				<g>
					<path style="fill:#F07162;" d="M1142.242,1157.748c-3.485,0-5.813-2.617-6.579-5.234c-0.906-3.096,0.134-6.104,2.65-7.666
						c3.583-2.224,6.84-0.923,8.611,0.189c-0.713-1.768-1.802-3.061-3.247-3.854c-3.253-1.785-7.268-0.481-7.308-0.468
						c-0.28,0.093-0.58-0.06-0.673-0.337c-0.093-0.277,0.058-0.579,0.336-0.672c0.182-0.062,4.499-1.465,8.156,0.544
						c2.112,1.159,3.549,3.209,4.271,6.094l0.462,1.85l-1.354-1.344c-0.164-0.164-4.079-3.966-8.694-1.1
						c-2.55,1.583-2.773,4.472-2.19,6.464c0.612,2.09,2.454,4.507,5.643,4.469c0.288-0.007,0.535,0.23,0.539,0.525
						c0.004,0.293-0.23,0.534-0.524,0.538C1142.309,1157.747,1142.275,1157.748,1142.242,1157.748z"/>
				</g>
			</g>
		</g>
		<g>
			<g>
				<path d="M1184.529,1136.934c0,1.872-1.518,3.39-3.39,3.39s-3.39-1.518-3.39-3.39c0-1.873,1.518-3.391,3.39-3.391
					S1184.529,1135.061,1184.529,1136.934z"/>
			</g>
		</g>
		<g>
			<g>
				<path d="M1219.501,1137.594c0,1.872,1.518,3.391,3.39,3.391s3.39-1.519,3.39-3.391s-1.518-3.39-3.39-3.39
					S1219.501,1135.722,1219.501,1137.594z"/>
			</g>
		</g>
		<g>
			<g>
				<path d="M1236.883,1131.716c-0.63,0-1.265-0.216-1.784-0.655c-7.935-6.732-19.434-2.999-19.549-2.96
					c-1.443,0.481-3.007-0.294-3.492-1.735c-0.486-1.441,0.283-3.003,1.724-3.492c0.588-0.202,14.54-4.801,24.888,3.979
					c1.161,0.986,1.304,2.728,0.319,3.89C1238.443,1131.384,1237.666,1131.716,1236.883,1131.716z"/>
			</g>
		</g>
		<g>
			<g>
				<path d="M1167.77,1131.451c-0.804,0-1.604-0.35-2.147-1.025c-0.958-1.186-0.773-2.924,0.412-3.88
					c10.559-8.524,24.392-3.589,24.977-3.376c1.43,0.525,2.164,2.111,1.64,3.542c-0.525,1.428-2.112,2.162-3.535,1.641l0,0
					c-0.115-0.042-11.518-4.052-19.613,2.486C1168.992,1131.251,1168.378,1131.451,1167.77,1131.451z"/>
			</g>
		</g>
		<g>
			<path style="fill:#FE9F73;" d="M1153.078,1163.659c0,0,6.108,44.931,43.378,44.301L1153.078,1163.659z"/>
		</g>
		<g>
			<path style="fill:#FE9F73;" d="M1247.467,1162.411c0,0-6.108,46.179-43.379,45.549l27.351-63.309L1247.467,1162.411z"/>
		</g>
		<g>
			<path d="M1243.252,1061.363l-43.376-4.317v-0.179l-0.898,0.089l-0.899-0.089v0.179l-43.376,4.317c0,0-11.63,0-11.221,19.622
				c0.282,13.527,2.917,61.054,4.527,89.272c0.784,13.742,7.152,26.549,17.637,35.467c0.235,0.199,0.47,0.4,0.708,0.602
				c18.804,15.993,46.443,15.993,65.248,0c0.236-0.201,0.472-0.402,0.707-0.602c10.484-8.918,16.853-21.725,17.637-35.467
				c1.61-28.219,4.246-75.745,4.527-89.272C1254.882,1061.363,1243.252,1061.363,1243.252,1061.363z M1230.123,1159.063
				l-26.856,1.711l-35.983-1.711c-6.948,0-12.581-5.632-12.581-12.58v-47.92c0,0,34.672,7.926,53.776-10.629l8.993-13.081
				l-2.801,15.125c0,0-1.695,19.213,29.373,23.71l-1.35,33.305C1242.419,1153.737,1236.872,1159.063,1230.123,1159.063z"/>
		</g>
		<g>
			<path style="fill:#F07162;" d="M1205.848,1161.605c-0.026,0-0.052-0.001-0.078-0.003l-12.769-1.181l2.837-30.703
				c0.042-0.458,0.449-0.786,0.905-0.752c0.457,0.043,0.793,0.447,0.751,0.905l-2.686,29.047l11.114,1.027
				c0.457,0.042,0.793,0.447,0.751,0.905C1206.634,1161.282,1206.271,1161.605,1205.848,1161.605z"/>
		</g>
		<g>
			<path d="M1222.892,1059.337c-7.464-1.856-54.679-22.909-77.979-16.369c-23.301,6.541-6.952,73.593,0.417,78.702
				c7.369,5.11,5.68-45.182,6.329-45.59c0.648-0.409,44.799,2.861,44.799,2.861L1222.892,1059.337z"/>
		</g>
		<g>
			<path d="M1214.67,1060.75c1.371-0.204,20.914-3.877,33.568,0.217c13.898,4.497,14.2,36.166,10.317,43.729
				c-3.884,7.563-6.432,26.416-6.432,26.416s-10.867-31.322-13.152-38.68C1236.685,1085.073,1214.67,1060.75,1214.67,1060.75z"/>
		</g>
		<g>
			<g>
				<path style="fill:#FBFDFC;" d="M1189.103,1169.791c0.319-0.061,20.541-0.503,20.541-0.503s-2.551,8.358-10.067,8.543
					S1189.103,1169.791,1189.103,1169.791z"/>
			</g>
		</g>
		<g>
			<path style="fill:#21111D;" d="M1198.93,1311.262c-40.639-1.155-42.988-56.337-43.007-56.895l3.323-0.113
				c0.019,0.525,2.262,52.617,39.779,53.685L1198.93,1311.262z"/>
		</g>
	</g>
	<g>
		<rect x="891.024" y="611.904" style="fill:#21111D;" width="12.808" height="816.734"/>
	</g>
	<g>
		
			<rect x="1561.497" y="609.178" transform="matrix(-1 -1.224647e-16 1.224647e-16 -1 3135.8018 2042.3657)" style="fill:#21111D;" width="12.808" height="824.009"/>
	</g>
	<g>
		<g>
			<path style="fill:#49263E;" d="M2060.104,1145.67c0,0,2.185,34.951,19.466,50.381c17.282,15.431,59.905,32.712,59.578,74.064
				c-0.326,41.353-81.881,57.4-100.973,56.783c-19.091-0.617-48.226,60.3-54.184-12.438s-39.05-63.991-11.208-92.426
				c27.843-28.435,36.453-25.794,50.943-47.183S2060.104,1145.67,2060.104,1145.67z"/>
		</g>
		<g>
			<path style="fill:#49263E;" d="M1879.133,1148.586l-0.074,106.485l23.317,57.631c0,0,65.293-15.732,64.77-21.136
				c-0.524-5.403,10.423-81.938,8.035-85.023s-30.749-68.506-41.6-69.744S1879.133,1148.586,1879.133,1148.586z"/>
		</g>
		<g>
			
				<ellipse transform="matrix(0.7071 -0.7071 0.7071 0.7071 -237.786 1730.1486)" style="fill:#49263E;" cx="1969.581" cy="1152.107" rx="90.522" ry="90.522"/>
		</g>
		<g>
			<path style="fill:#3F9896;" d="M1705.754,1384.761c23.332-54.415,47.688-106.646,58.228-114.375
				c23.048-16.901,175.161-18.438,175.161-18.438s110.629-5.762,169.016,4.417c0,0,64.533,2.497,96.8,69.335
				c8.271,17.132,17.601,37.799,26.905,59.061H1705.754z"/>
		</g>
		<g>
			
				<rect x="2130.282" y="1321.379" transform="matrix(0.9745 -0.2244 0.2244 0.9745 -249.3314 512.8733)" style="fill:#21111D;" width="3.326" height="64.2"/>
		</g>
		<g>
			
				<rect x="1776.784" y="1351.817" transform="matrix(0.2246 -0.9744 0.9744 0.2246 83.6925 2812.1372)" style="fill:#21111D;" width="64.2" height="3.326"/>
		</g>
		<g>
			<path style="fill:#FE9F73;" d="M1966.991,1308.416L1966.991,1308.416c17.958,0.119,32.331-19.966,31.52-44.044l-2.112-62.646
				h-56.703l-3.836,61.007C1934.319,1287.235,1948.671,1308.296,1966.991,1308.416z"/>
		</g>
		<g>
			<path style="fill:#F07162;" d="M1997.205,1225.645c-10.028,24.679-54.301,22.659-58.911-1.634l1.401-22.284h56.703
				L1997.205,1225.645z"/>
		</g>
		<g>
			<path style="fill:#FE9F73;" d="M1925.232,1106.854c2.742-5.495,6.321-9.158,9.822-11.604c7.113-3.275,18.758-7.529,33.603-9.18
				h0.714h0.42h0.714c14.845,1.65,26.489,5.904,33.603,9.18c3.501,2.446,7.08,6.109,9.822,11.604
				c1.306,10.128,2.902,28.816,3.2,47.485c0.268,16.783-4.24,33.368-13.491,46.946c-6.971,10.231-16.991,19.399-30.855,20.75
				c-0.967,0.015-1.97,0.021-2.992,0.023v0.004c-0.072,0-0.138-0.002-0.21-0.002s-0.138,0.002-0.21,0.002v-0.004
				c-1.022-0.002-2.026-0.009-2.992-0.023c-13.864-1.351-23.885-10.519-30.855-20.75c-9.252-13.578-13.759-30.163-13.491-46.946
				C1922.33,1135.67,1923.927,1116.981,1925.232,1106.854z"/>
		</g>
		<g>
			<g>
				<g>
					<circle style="fill:#FE9F73;" cx="1917.979" cy="1165.225" r="15.603"/>
				</g>
			</g>
			<g>
				<g>
					<path style="fill:#F07162;" d="M1916.824,1174.853c-3.275,0-5.462-2.46-6.182-4.919c-0.853-2.908,0.125-5.736,2.49-7.204
						c3.366-2.089,6.427-0.867,8.091,0.178c-0.671-1.66-1.692-2.875-3.051-3.621c-3.057-1.677-6.829-0.451-6.866-0.438
						c-0.264,0.087-0.545-0.056-0.633-0.316c-0.087-0.262,0.055-0.545,0.316-0.632c0.171-0.058,4.228-1.376,7.663,0.511
						c1.985,1.09,3.336,3.016,4.013,5.727l0.436,1.738l-1.272-1.263c-0.154-0.154-3.833-3.727-8.17-1.033
						c-2.396,1.486-2.606,4.201-2.059,6.073c0.575,1.965,2.306,4.235,5.303,4.2c0.271-0.007,0.502,0.216,0.507,0.492
						c0.004,0.276-0.217,0.503-0.493,0.507C1916.887,1174.852,1916.855,1174.853,1916.824,1174.853z"/>
				</g>
			</g>
		</g>
		<g>
			<g>
				<g>
					<circle style="fill:#FE9F73;" cx="2022.572" cy="1165.225" r="15.603"/>
				</g>
			</g>
			<g>
				<g>
					<path style="fill:#F07162;" d="M2023.727,1174.853c3.275,0,5.463-2.46,6.183-4.919c0.852-2.908-0.126-5.736-2.49-7.204
						c-3.366-2.089-6.428-0.867-8.092,0.178c0.671-1.66,1.693-2.875,3.051-3.621c3.057-1.677,6.829-0.451,6.867-0.438
						c0.263,0.087,0.544-0.056,0.632-0.316c0.088-0.262-0.055-0.545-0.315-0.632c-0.172-0.058-4.229-1.376-7.664,0.511
						c-1.985,1.09-3.335,3.016-4.013,5.727l-0.435,1.738l1.271-1.263c0.154-0.154,3.833-3.727,8.17-1.033
						c2.396,1.486,2.606,4.201,2.059,6.073c-0.575,1.965-2.306,4.235-5.302,4.2c-0.271-0.007-0.503,0.216-0.507,0.492
						s0.217,0.503,0.492,0.507C2023.665,1174.852,2023.696,1174.853,2023.727,1174.853z"/>
				</g>
			</g>
		</g>
		<g>
			<g>
				<path d="M1983.991,1155.293c0,1.759,1.426,3.186,3.186,3.186c1.759,0,3.185-1.427,3.185-3.186c0-1.76-1.426-3.186-3.185-3.186
					C1985.417,1152.107,1983.991,1153.533,1983.991,1155.293z"/>
			</g>
		</g>
		<g>
			<g>
				<path d="M1951.129,1155.914c0,1.759-1.427,3.186-3.186,3.186c-1.76,0-3.186-1.427-3.186-3.186c0-1.76,1.426-3.186,3.186-3.186
					C1949.702,1152.729,1951.129,1154.154,1951.129,1155.914z"/>
			</g>
		</g>
		<g>
			<path style="fill:#FE9F73;" d="M2013.545,1180.406c0,0-5.739,42.221-40.762,41.629L2013.545,1180.406z"/>
		</g>
		<g>
			<path style="fill:#FE9F73;" d="M1924.851,1179.234c0,0,5.739,43.393,40.762,42.801l-25.7-59.49L1924.851,1179.234z"/>
		</g>
		<g>
			<g>
				<path style="fill:#49263E;" d="M1943.492,1146.712c0.239,0,0.478-0.081,0.674-0.247c6.454-5.478,15.67-2.459,15.763-2.429
					c0.544,0.186,1.137-0.109,1.319-0.653c0.184-0.544-0.107-1.135-0.65-1.32c-0.421-0.144-10.414-3.436-17.779,2.813
					c-0.438,0.372-0.493,1.029-0.121,1.468C1942.904,1146.587,1943.197,1146.712,1943.492,1146.712z"/>
			</g>
		</g>
		<g>
			<g>
				<path style="fill:#49263E;" d="M1995.668,1146.512c0.305,0,0.605-0.133,0.813-0.388c0.36-0.447,0.291-1.103-0.157-1.465
					c-7.515-6.067-17.423-2.533-17.841-2.38c-0.539,0.197-0.816,0.796-0.619,1.334c0.198,0.541,0.796,0.816,1.336,0.622
					c0.091-0.032,9.229-3.273,15.816,2.045C1995.207,1146.437,1995.438,1146.512,1995.668,1146.512z"/>
			</g>
		</g>
		<g>
			<path style="fill:#49263E;" d="M1944.758,1091.39c0,0,2.899,24.089,36.985,29.517c34.085,5.428,31.802,59.5,31.802,59.5
				s38.096,52.522,39.484,37.71c1.389-14.813,6.019-53.323,0-66.009c-6.018-12.686-10.917-44.625-22.816-52.495
				c-11.901-7.869,0.647-4.403-20.902-13.543c-21.55-9.139-14.473-12.842-36.527-11.916s-18.235-0.926-27.552,2.314
				S1944.758,1091.39,1944.758,1091.39z"/>
		</g>
		<g>
			<path style="fill:#49263E;" d="M1942.326,1078.27c0,0,8.232,28.904,5.617,36.311c-2.616,7.406-25.822,35.602-25.822,35.602
				s-9.814-18.012-6.728-26.035c3.086-8.023-13.271-5.954-9.567-9.92c3.703-3.967,35.139-37.296,35.139-37.296L1942.326,1078.27z"/>
		</g>
		<g>
			<circle style="fill:#49263E;" cx="1917.979" cy="1065.979" r="24.999"/>
		</g>
		<g>
			<path style="fill:#49263E;" d="M1990.361,1065.979c0,13.807,11.192,24.999,24.999,24.999c13.808,0,25-11.192,25-24.999
				s-11.192-24.999-25-24.999C2001.554,1040.979,1990.361,1052.172,1990.361,1065.979z"/>
		</g>
		<g>
			<g>
				<path style="fill:#F75553;" d="M2031.486,1088.673c0.695,0,1.389-0.276,1.901-0.823c0.971-1.037,0.931-2.657-0.083-3.645
					l-0.128-0.135c-3.971-4.172-18.759-18.137-42.326-22.643c-1.414-0.277-2.777,0.654-3.047,2.067
					c-0.271,1.413,0.656,2.776,2.068,3.046c22.045,4.217,35.832,17.231,39.532,21.12c0.155,0.163,0.259,0.267,0.302,0.308
					C2030.209,1088.44,2030.849,1088.673,2031.486,1088.673z"/>
			</g>
		</g>
		<g>
			<g>
				<path style="fill:#F75553;" d="M1904.051,1090.424c0.66,0,1.319-0.253,1.824-0.76c0.043-0.043,0.142-0.148,0.29-0.317
					c3.563-4.015,16.887-17.503,38.774-22.482c1.402-0.318,2.28-1.714,1.961-3.117c-0.317-1.401-1.715-2.285-3.116-1.961
					c-23.4,5.324-37.691,19.796-41.514,24.104l-0.129,0.144c-0.961,1.044-0.923,2.68,0.102,3.66
					C1902.751,1090.181,1903.402,1090.424,1904.051,1090.424z"/>
			</g>
		</g>
		<g>
			<path style="fill:#21111D;" d="M1991.619,1114.664c-0.012,0-0.024,0-0.036,0c-23.036-0.721-39.816-18.631-40.521-19.393
				c-0.414-0.449-0.386-1.15,0.063-1.565c0.448-0.415,1.149-0.388,1.565,0.062c0.167,0.18,16.873,17.989,38.961,18.68
				c0.611,0.02,1.092,0.531,1.074,1.144C1992.707,1114.19,1992.214,1114.664,1991.619,1114.664z"/>
		</g>
		<g>
			<path style="fill:#21111D;" d="M2118.763,1251.432c-0.449,0-0.873-0.276-1.04-0.723c-4.497-12.088-15.226-20.045-27.648-29.256
				c-6.132-4.548-12.473-9.249-18.956-15.006c-28.446-25.262-28-56.539-27.992-56.854c0.015-0.611,0.499-1.138,1.136-1.079
				c0.611,0.015,1.095,0.522,1.081,1.135c-0.008,0.303-0.398,30.589,27.248,55.14c6.41,5.692,12.711,10.364,18.804,14.883
				c12.705,9.422,23.679,17.56,28.407,30.265c0.213,0.574-0.079,1.212-0.653,1.426
				C2119.021,1251.41,2118.891,1251.432,2118.763,1251.432z"/>
		</g>
		<g>
			<g>
				<path style="fill:#F07162;" d="M1969.022,1175.731c0.212,0,0.402-0.147,0.448-0.363c0.053-0.248-0.104-0.492-0.353-0.546
					c-2.958-0.634-4.823-4.276-5.36-5.466c4.202-2.243,6.766-5.161,7.621-8.677c1.396-5.729-2.236-10.911-2.392-11.128
					c-0.147-0.206-0.434-0.254-0.64-0.108c-0.207,0.147-0.255,0.435-0.108,0.641c0.035,0.051,3.544,5.068,2.246,10.385
					c-0.817,3.347-3.35,6.129-7.525,8.269l-0.368,0.188l0.148,0.386c0.087,0.226,2.177,5.551,6.186,6.41
					C1968.958,1175.728,1968.99,1175.731,1969.022,1175.731z"/>
			</g>
		</g>
		<g>
			<g>
				<path style="fill:#F07162;" d="M1976.524,1185.684c1.466,0,2.842-0.33,4.116-0.991c4.423-2.295,6.012-7.711,6.077-7.939
					c0.079-0.276-0.08-0.564-0.357-0.645c-0.278-0.084-0.563,0.082-0.644,0.357c-0.016,0.052-1.539,5.222-5.562,7.305
					c-2.091,1.081-4.513,1.154-7.2,0.217c-0.272-0.098-0.569,0.048-0.663,0.319c-0.096,0.271,0.048,0.568,0.319,0.663
					C1973.975,1185.446,1975.282,1185.684,1976.524,1185.684z"/>
			</g>
		</g>
		<g>
			
				<rect x="1871.801" y="1277.814" transform="matrix(0.8559 -0.5172 0.5172 0.8559 -396.4501 1154.7375)" style="fill:#21111D;" width="3.325" height="21.634"/>
		</g>
		<g>
			
				<rect x="1869.64" y="1286.683" transform="matrix(0.8812 -0.4727 0.4727 0.8812 -393.7129 1039.4323)" style="fill:#21111D;" width="3.326" height="32.809"/>
		</g>
		<g>
			<g>
				<path style="fill:#F07162;" d="M1978.85,1162.857c-0.67,0-0.671-1.042,0-1.042
					C1979.52,1161.815,1979.521,1162.857,1978.85,1162.857L1978.85,1162.857z"/>
			</g>
		</g>
		<g>
			<g>
				<path style="fill:#F07162;" d="M1983.132,1166.444c-0.671,0-0.672-1.042,0-1.042
					C1983.802,1165.402,1983.803,1166.444,1983.132,1166.444L1983.132,1166.444z"/>
			</g>
		</g>
		<g>
			<g>
				<path style="fill:#F07162;" d="M1976.535,1168.99c-0.67,0-0.672-1.041,0-1.041
					C1977.205,1167.949,1977.206,1168.99,1976.535,1168.99L1976.535,1168.99z"/>
			</g>
		</g>
		<g>
			<g>
				<path style="fill:#F07162;" d="M1989.496,1163.667c-0.67,0-0.671-1.042,0-1.042
					C1990.166,1162.625,1990.168,1163.667,1989.496,1163.667L1989.496,1163.667z"/>
			</g>
		</g>
		<g>
			<g>
				<path style="fill:#F07162;" d="M1996.439,1169.222c-0.67,0-0.671-1.041,0-1.041S1997.111,1169.222,1996.439,1169.222
					L1996.439,1169.222z"/>
			</g>
		</g>
		<g>
			<g>
				<path style="fill:#F07162;" d="M1999.102,1161.236c-0.67,0-0.671-1.041,0-1.041
					C1999.771,1160.195,1999.772,1161.236,1999.102,1161.236L1999.102,1161.236z"/>
			</g>
		</g>
		<g>
			<g>
				<path style="fill:#F07162;" d="M1959.176,1162.047c-0.67,0-0.671-1.042,0-1.042S1959.848,1162.047,1959.176,1162.047
					L1959.176,1162.047z"/>
			</g>
		</g>
		<g>
			<g>
				<path style="fill:#F07162;" d="M1953.506,1168.759c-0.67,0-0.672-1.041,0-1.041
					C1954.176,1167.718,1954.177,1168.759,1953.506,1168.759L1953.506,1168.759z"/>
			</g>
		</g>
		<g>
			<g>
				<path style="fill:#F07162;" d="M1949.803,1164.709c-0.671,0-0.672-1.042,0-1.042
					C1950.473,1163.667,1950.474,1164.709,1949.803,1164.709L1949.803,1164.709z"/>
			</g>
		</g>
		<g>
			<g>
				<path style="fill:#F07162;" d="M1946.563,1167.37c-0.671,0-0.672-1.042,0-1.042
					C1947.232,1166.328,1947.233,1167.37,1946.563,1167.37L1946.563,1167.37z"/>
			</g>
		</g>
		<g>
			<g>
				<path style="fill:#F07162;" d="M1939.618,1161.236c-0.67,0-0.671-1.041,0-1.041S1940.29,1161.236,1939.618,1161.236
					L1939.618,1161.236z"/>
			</g>
		</g>
		<g>
			<g>
				<path style="fill:#F07162;" d="M1935.684,1168.296c-0.038,0-0.077,0-0.115,0c-0.072,0.003-0.139-0.013-0.201-0.045
					c-0.064-0.021-0.12-0.057-0.167-0.107c-0.051-0.047-0.087-0.104-0.108-0.168c-0.032-0.062-0.047-0.129-0.045-0.2
					c0.007-0.046,0.013-0.093,0.02-0.139c0.024-0.088,0.069-0.165,0.134-0.229c0.035-0.027,0.07-0.055,0.104-0.082
					c0.082-0.047,0.169-0.07,0.264-0.071c0.038,0,0.077,0,0.115,0c0.072-0.002,0.139,0.013,0.201,0.045
					c0.064,0.021,0.12,0.058,0.167,0.108c0.051,0.047,0.087,0.103,0.108,0.167c0.032,0.063,0.047,0.129,0.045,0.201
					c-0.007,0.046-0.013,0.092-0.02,0.139c-0.024,0.088-0.069,0.164-0.134,0.229c-0.034,0.027-0.07,0.054-0.104,0.081
					C1935.865,1168.272,1935.778,1168.296,1935.684,1168.296L1935.684,1168.296z"/>
			</g>
		</g>
		<g>
			<g>
				<path style="fill:#F07162;" d="M1933.117,1161.778c-0.039-0.038-0.078-0.077-0.116-0.115c-0.051-0.048-0.087-0.104-0.107-0.168
					c-0.033-0.062-0.048-0.129-0.045-0.2c-0.003-0.072,0.012-0.139,0.045-0.201c0.021-0.064,0.057-0.12,0.107-0.168
					c0.035-0.026,0.07-0.054,0.105-0.081c0.081-0.047,0.169-0.07,0.263-0.071c0.047,0.007,0.093,0.013,0.139,0.019
					c0.088,0.025,0.165,0.069,0.229,0.134c0.039,0.039,0.077,0.078,0.116,0.116c0.051,0.047,0.086,0.104,0.107,0.168
					c0.032,0.062,0.047,0.129,0.045,0.2c0.002,0.072-0.013,0.139-0.045,0.201c-0.021,0.064-0.057,0.12-0.107,0.167
					c-0.035,0.027-0.07,0.055-0.105,0.082c-0.081,0.047-0.169,0.07-0.263,0.071c-0.047-0.007-0.093-0.013-0.139-0.02
					C1933.258,1161.888,1933.182,1161.843,1933.117,1161.778L1933.117,1161.778z"/>
			</g>
		</g>
	</g>
	<g>
		<rect x="903.832" y="1381.134" style="fill:#21111D;" width="1340.273" height="47.504"/>
	</g>
	<g>
		<g>
			<path style="fill:#61A3C5;" d="M2099.783,984.931c-22.492-52.457-45.973-102.809-56.133-110.26
				c-22.218-16.293-168.859-17.774-168.859-17.774s-106.648-5.555-162.936,4.258c0,0-62.211,2.407-93.316,66.84
				c-7.974,16.516-16.969,36.439-25.938,56.936H2099.783z"/>
		</g>
		<g>
			
				<rect x="1657.98" y="953.112" transform="matrix(0.2245 -0.9745 0.9745 0.2245 379.4037 2386.283)" style="fill:#21111D;" width="61.89" height="3.326"/>
		</g>
		<g>
			
				<rect x="1998.7" y="923.83" transform="matrix(0.9745 -0.2244 0.2244 0.9745 -163.2183 473.1497)" style="fill:#21111D;" width="3.326" height="61.889"/>
		</g>
		<g>
			<path style="fill:#FE9F73;" d="M1847.944,911.333L1847.944,911.333c-17.312,0.114-31.168-19.248-30.386-42.46l2.036-60.392
				h54.663l3.698,58.813C1879.441,890.914,1865.605,911.216,1847.944,911.333z"/>
		</g>
		<g>
			<path style="fill:#F07162;" d="M1818.817,831.538c9.668,23.792,52.347,21.845,56.791-1.574l-1.351-21.483h-54.663
				L1818.817,831.538z"/>
		</g>
		<g>
			<path style="fill:#FE9F73;" d="M1888.201,717.021c-2.644-5.297-6.094-8.829-9.47-11.187c-6.857-3.158-18.083-7.258-32.394-8.849
				h-0.688h-0.405h-0.688c-14.31,1.591-25.535,5.691-32.393,8.849c-3.376,2.358-6.826,5.89-9.47,11.187
				c-1.258,9.764-2.798,27.78-3.085,45.777c-0.258,16.18,4.088,32.168,13.006,45.258c6.721,9.863,16.38,18.702,29.745,20.003
				c0.932,0.014,1.899,0.021,2.885,0.023v0.003c0.07,0,0.133-0.002,0.202-0.002c0.07,0,0.133,0.002,0.203,0.002v-0.003
				c0.985-0.002,1.953-0.009,2.885-0.023c13.365-1.302,23.024-10.14,29.745-20.003c8.918-13.089,13.264-29.078,13.006-45.258
				C1890.999,744.801,1889.459,726.785,1888.201,717.021z"/>
		</g>
		<g>
			<g>
				<g>
					<path style="fill:#FE9F73;" d="M1880.152,773.292c0,8.307,6.734,15.041,15.041,15.041c8.308,0,15.041-6.734,15.041-15.041
						c0-8.307-6.733-15.042-15.041-15.042C1886.887,758.251,1880.152,764.985,1880.152,773.292z"/>
				</g>
			</g>
			<g>
				<g>
					<path style="fill:#F07162;" d="M1896.307,782.574c3.157,0,5.266-2.372,5.96-4.742c0.82-2.804-0.121-5.53-2.401-6.944
						c-3.245-2.014-6.195-0.836-7.8,0.171c0.646-1.601,1.632-2.772,2.94-3.491c2.947-1.617,6.584-0.436,6.62-0.423
						c0.254,0.084,0.525-0.054,0.609-0.305c0.084-0.252-0.052-0.525-0.305-0.609c-0.165-0.056-4.075-1.326-7.388,0.493
						c-1.914,1.051-3.216,2.908-3.869,5.521l-0.418,1.675l1.226-1.217c0.149-0.149,3.695-3.592,7.876-0.996
						c2.311,1.433,2.513,4.05,1.984,5.855c-0.555,1.893-2.223,4.082-5.111,4.048c-0.261-0.007-0.484,0.208-0.488,0.475
						c-0.004,0.266,0.209,0.484,0.475,0.488C1896.247,782.573,1896.276,782.574,1896.307,782.574z"/>
				</g>
			</g>
		</g>
		<g>
			<g>
				<g>
					<path style="fill:#FE9F73;" d="M1809.404,773.292c0,8.307-6.734,15.041-15.041,15.041c-8.308,0-15.042-6.734-15.042-15.041
						c0-8.307,6.734-15.042,15.042-15.042C1802.67,758.251,1809.404,764.985,1809.404,773.292z"/>
				</g>
			</g>
			<g>
				<g>
					<path style="fill:#F07162;" d="M1793.25,782.574c-3.157,0-5.266-2.372-5.96-4.742c-0.821-2.804,0.121-5.53,2.4-6.944
						c3.245-2.014,6.196-0.836,7.801,0.171c-0.646-1.601-1.632-2.772-2.941-3.491c-2.946-1.617-6.583-0.436-6.619-0.423
						c-0.254,0.084-0.525-0.054-0.609-0.305c-0.085-0.252,0.052-0.525,0.305-0.609c0.165-0.056,4.075-1.326,7.388,0.493
						c1.913,1.051,3.215,2.908,3.868,5.521l0.419,1.675l-1.227-1.217c-0.148-0.149-3.694-3.592-7.875-0.996
						c-2.311,1.433-2.514,4.05-1.984,5.855c0.554,1.893,2.222,4.082,5.111,4.048c0.261-0.007,0.484,0.208,0.488,0.475
						c0.004,0.266-0.209,0.484-0.475,0.488C1793.31,782.573,1793.279,782.574,1793.25,782.574z"/>
				</g>
			</g>
		</g>
		<g>
			<g>
				<path d="M1831.557,763.718c0,1.696-1.375,3.07-3.071,3.07s-3.07-1.374-3.07-3.07c0-1.696,1.374-3.071,3.07-3.071
					S1831.557,762.022,1831.557,763.718z"/>
			</g>
		</g>
		<g>
			<g>
				<path d="M1863.236,764.317c0,1.696,1.375,3.071,3.07,3.071c1.696,0,3.071-1.375,3.071-3.071s-1.375-3.071-3.071-3.071
					C1864.611,761.246,1863.236,762.621,1863.236,764.317z"/>
			</g>
		</g>
		<g>
			<g>
				<path d="M1878.981,758.992c-0.571,0-1.146-0.195-1.616-0.593c-7.187-6.099-17.604-2.717-17.708-2.681
					c-1.307,0.435-2.724-0.266-3.163-1.572c-0.44-1.306,0.256-2.72,1.561-3.164c0.533-0.183,13.172-4.349,22.545,3.604
					c1.053,0.893,1.182,2.47,0.289,3.523C1880.396,758.691,1879.69,758.992,1878.981,758.992z"/>
			</g>
		</g>
		<g>
			<g>
				<path d="M1816.374,758.752c-0.729,0-1.452-0.317-1.945-0.929c-0.868-1.074-0.7-2.648,0.373-3.515
					c9.565-7.722,22.097-3.251,22.626-3.059c1.295,0.476,1.96,1.913,1.485,3.208c-0.477,1.294-1.914,1.959-3.203,1.487l0,0
					c-0.104-0.038-10.434-3.67-17.767,2.252C1817.481,758.57,1816.926,758.752,1816.374,758.752z"/>
			</g>
		</g>
		<g>
			<path style="fill:#FE9F73;" d="M1803.065,787.928c0,0,5.533,40.702,39.295,40.131L1803.065,787.928z"/>
		</g>
		<g>
			<path style="fill:#FE9F73;" d="M1888.568,786.798c0,0-5.532,41.832-39.295,41.261l24.775-57.35L1888.568,786.798z"/>
		</g>
		<g>
			<path style="fill:#F07162;" d="M1850.867,786.146c-0.026,0-0.052-0.001-0.078-0.003l-11.644-1.076l2.577-27.891
				c0.043-0.458,0.446-0.781,0.905-0.751c0.457,0.042,0.793,0.447,0.751,0.905l-2.426,26.235l9.99,0.922
				c0.456,0.042,0.793,0.447,0.751,0.905C1851.654,785.822,1851.291,786.146,1850.867,786.146z"/>
		</g>
		<g>
			<path d="M1866.307,693.426c-27.24-18.129-57.804-19.25-71.943-4.851c-15.361,15.643-4.992,56.688,1.683,61.316
				s5.145-40.928,5.732-41.298c0.587-0.371,40.582,2.592,40.582,2.592L1866.307,693.426z"/>
		</g>
		<g>
			<path d="M1863.236,693.766c1.241-0.185,18.945-3.513,30.408,0.196c12.59,4.073,10.983,32.087,9.345,39.612
				c-3.419,15.707-5.748,24.677-5.748,24.677s-9.922-29.121-11.992-35.787C1883.179,715.799,1863.236,693.766,1863.236,693.766z"/>
		</g>
		<g>
			<g>
				<path style="fill:#FBFDFC;" d="M1835.699,793.483c0.289-0.056,18.606-0.456,18.606-0.456s-2.312,7.572-9.119,7.739
					C1838.378,800.933,1835.699,793.483,1835.699,793.483z"/>
			</g>
		</g>
		<g>
			<path style="fill:#21111D;" d="M1844.597,921.792c-36.958-1.05-39.093-51.182-39.11-51.689l3.323-0.113
				c0.017,0.475,2.046,47.517,35.883,48.479L1844.597,921.792z"/>
		</g>
		<g>
			<path d="M1787.939,729.172l4.02,29.272c0,0,5.355-0.364,7.725,0.778c0,0-0.172-41.086,9.721-42.871
				c9.893-1.785,25.307,7.438,35.598,2.082c10.292-5.355,15.398-18.945,15.398-18.945s-0.462,16.267,8.521,21.623
				c8.983,5.354,18.126,39.535,18.126,39.535s3.333-2.009,5.74-2.203c0,0-5.661-40.902-6.851-43.282
				c-1.19-2.38-25.902-20.649-25.902-20.649s-12.503-0.75-20.968-1.355c-8.465-0.606-25.275-1.774-29.662,0
				c-4.388,1.774-13.61,1.179-13.61,6.832c0,5.653-4.053,4.463-1.431,11.008C1796.984,717.542,1787.939,729.172,1787.939,729.172z"
				/>
		</g>
		<g>
			<path d="M1856.75,692.217l1.754-3.642c0,0,6.493,4.352,21.648,3.644c15.155-0.708,15.374,46.296,15.041,47.189
				c-0.332,0.893,2.048,18.843,2.048,18.843s-4.473-1.057-10.194,2.397c0,0-7.061-42.659-7.953-46.081
				S1856.75,692.217,1856.75,692.217z"/>
		</g>
	</g>
	<g>
		
			<rect x="1561.497" y="314.126" transform="matrix(-1.836970e-16 1 -1 -1.836970e-16 2555.4292 -580.3726)" style="fill:#21111D;" width="12.809" height="1346.804"/>
	</g>
	<g>
		<path style="fill:#F3FFFE;" d="M1816.176,1201.981h-185.79c-10.485,0-18.985-8.5-18.985-18.986v-92.558
			c0-10.486,8.5-18.986,18.985-18.986h185.79c10.485,0,18.985,8.5,18.985,18.986v92.558
			C1835.161,1193.481,1826.661,1201.981,1816.176,1201.981z"/>
	</g>
	<g>
		<polygon style="fill:#F3FFFE;" points="1830.699,1147.258 1858.971,1182.159 1818.187,1167.43 		"/>
	</g>
	<g>
		<g>
			<path style="fill:#F3FFFE;" d="M1968.488,802.915h224.249c10.485,0,18.985-8.5,18.985-18.985V668.935
				c0-10.485-8.5-18.985-18.985-18.985h-224.249c-10.485,0-18.986,8.5-18.986,18.985v114.994
				C1949.502,794.415,1958.003,802.915,1968.488,802.915z"/>
		</g>
	</g>
	<g style="opacity:0.5;">
		
			<ellipse transform="matrix(0.9816 -0.1911 0.1911 0.9816 -127.8418 143.4911)" style="fill:#F3FFFE;" cx="680.182" cy="734.695" rx="56.348" ry="56.348"/>
	</g>
	<g style="opacity:0.5;">
		
			<ellipse transform="matrix(0.9816 -0.1911 0.1911 0.9816 -160.2815 146.6189)" style="fill:#F3FFFE;" cx="680.182" cy="904.482" rx="56.348" ry="56.348"/>
	</g>
	<g style="opacity:0.5;">
		
			<ellipse transform="matrix(0.1098 -0.994 0.994 0.1098 -462.2693 1632.3955)" style="fill:#F3FFFE;" cx="680.182" cy="1074.269" rx="56.348" ry="56.348"/>
	</g>
	<g style="opacity:0.5;">
		
			<ellipse transform="matrix(0.1098 -0.994 0.994 0.1098 -631.0291 1783.541)" style="fill:#F3FFFE;" cx="680.182" cy="1244.055" rx="56.348" ry="56.348"/>
	</g>
	<g style="opacity:0.5;">
		<g>
			<path style="fill:#F3FFFE;" d="M861.467,759.361H749.642c-2.143,0-3.879-1.737-3.879-3.879c0-2.142,1.736-3.879,3.879-3.879
				h111.825c2.143,0,3.879,1.737,3.879,3.879C865.346,757.624,863.609,759.361,861.467,759.361z"/>
		</g>
	</g>
	<g style="opacity:0.5;">
		<g>
			<path style="fill:#F3FFFE;" d="M827.969,733.31h-78.327c-2.143,0-3.879-1.737-3.879-3.879c0-2.143,1.736-3.879,3.879-3.879
				h78.327c2.143,0,3.879,1.737,3.879,3.879C831.848,731.573,830.111,733.31,827.969,733.31z"/>
		</g>
	</g>
	<g style="opacity:0.5;">
		<g>
			<path style="fill:#F3FFFE;" d="M861.467,924.014H749.642c-2.143,0-3.879-1.737-3.879-3.879c0-2.143,1.736-3.879,3.879-3.879
				h111.825c2.143,0,3.879,1.737,3.879,3.879C865.346,922.277,863.609,924.014,861.467,924.014z"/>
		</g>
	</g>
	<g style="opacity:0.5;">
		<g>
			<path style="fill:#F3FFFE;" d="M827.969,897.963h-78.327c-2.143,0-3.879-1.737-3.879-3.879c0-2.143,1.736-3.879,3.879-3.879
				h78.327c2.143,0,3.879,1.737,3.879,3.879C831.848,896.227,830.111,897.963,827.969,897.963z"/>
		</g>
	</g>
	<g style="opacity:0.5;">
		<g>
			<path style="fill:#F3FFFE;" d="M861.467,1088.667H749.642c-2.143,0-3.879-1.737-3.879-3.88c0-2.142,1.736-3.879,3.879-3.879
				h111.825c2.143,0,3.879,1.737,3.879,3.879C865.346,1086.93,863.609,1088.667,861.467,1088.667z"/>
		</g>
	</g>
	<g style="opacity:0.5;">
		<g>
			<path style="fill:#F3FFFE;" d="M827.969,1062.616h-78.327c-2.143,0-3.879-1.736-3.879-3.879s1.736-3.88,3.879-3.88h78.327
				c2.143,0,3.879,1.737,3.879,3.88S830.111,1062.616,827.969,1062.616z"/>
		</g>
	</g>
	<g style="opacity:0.5;">
		<g>
			<path style="fill:#F3FFFE;" d="M861.467,1253.32H749.642c-2.143,0-3.879-1.737-3.879-3.879c0-2.143,1.736-3.88,3.879-3.88
				h111.825c2.143,0,3.879,1.737,3.879,3.88C865.346,1251.583,863.609,1253.32,861.467,1253.32z"/>
		</g>
	</g>
	<g style="opacity:0.5;">
		<g>
			<path style="fill:#F3FFFE;" d="M827.969,1227.27h-78.327c-2.143,0-3.879-1.737-3.879-3.879c0-2.143,1.736-3.88,3.879-3.88h78.327
				c2.143,0,3.879,1.737,3.879,3.88C831.848,1225.532,830.111,1227.27,827.969,1227.27z"/>
		</g>
	</g>
	<g>
		<g>
			<polygon style="fill:#F3FFFE;" points="1316.607,1104.277 1289.05,1126.32 1322.825,1121.859 			"/>
		</g>
		<g>
			<path style="fill:#F3FFFE;" d="M1523.633,1162.715h-193.929c-10.485,0-18.985-8.5-18.985-18.985v-97.307
				c0-10.485,8.5-18.985,18.985-18.985h193.929c10.485,0,18.985,8.5,18.985,18.985v97.307
				C1542.618,1154.215,1534.118,1162.715,1523.633,1162.715z"/>
		</g>
	</g>
	<g>
		<polygon style="fill:#F3FFFE;" points="1154.442,726.558 1181.999,748.601 1148.224,744.14 		"/>
	</g>
	<g>
		<path style="fill:#F3FFFE;" d="M947.417,784.996h193.928c10.485,0,18.986-8.5,18.986-18.986v-97.306
			c0-10.485-8.5-18.985-18.986-18.985H947.417c-10.485,0-18.986,8.5-18.986,18.985v97.306
			C928.431,776.495,936.931,784.996,947.417,784.996z"/>
	</g>
	<g>
		<polygon style="fill:#F3FFFE;" points="1958.844,717.768 1926.044,741.989 1965.239,738.345 		"/>
	</g>
	<g>
		<g>
			<g>
				<g>
					<path style="fill:#258D8C;" d="M767.042,1250.054c0,0-12.095-168.615-77.549-135.888
						c-65.454,32.727-118.813,247.587-125.928,253.99c-7.114,6.402-4.98,202.765-4.98,202.765l76.126-38.409
						C634.711,1532.512,654.965,1063.16,767.042,1250.054z"/>
				</g>
			</g>
			<g>
				<g>
					<path style="fill:#7FC6A6;" d="M693.688,900.945c0,0-146.665,131.225-186.684,356.223
						c-40.02,224.999,86.442,291.218,86.442,291.218S611.441,1075.291,693.688,900.945z"/>
				</g>
			</g>
			<g>
				<g>
					<path style="fill:#258D8C;" d="M421.629,1578.747c0,0-24.545-478.974-148.339-686.638c0,0,217.333,129.661,289.395,469.987
						c4.057,19.159,6.464,40.457,9.536,60.967c3.195,21.339,5.102,40.232,4.614,59.095c-0.862,33.325-5.484,61.962-6.843,83.007
						C558.255,1747.013,421.629,1578.747,421.629,1578.747z"/>
				</g>
			</g>
			<g>
				<g>
					<path style="fill:#7FC6A6;" d="M425.824,1375.357c-8.423-68.287-34.351-133.381-76.021-188.133
						c-30.102-39.551-64.951-69.608-92.164-48.158c-60.474,47.668-72.569,343.634-72.569,343.634s68.3-204.899,98.181-191.382
						c29.881,13.518,57.628,291.697,57.628,291.697l111.699,9.249L425.824,1375.357z"/>
				</g>
			</g>
			<g>
				<g>
					<path style="fill:#21111D;" d="M578.177,1562.025c4.585-104.57-8.529-204.936-38.98-298.308
						c-24.363-74.705-59.814-145.123-105.369-209.297c-77.578-109.286-158.734-163.29-159.545-163.822l-1.985,3.022
						c0.806,0.53,81.489,54.242,158.675,163.024c71.212,100.362,153.93,269.482,143.592,505.223L578.177,1562.025z"/>
				</g>
			</g>
			<g>
				<g>
					<path style="fill:#21111D;" d="M595.253,1548.454c0.044-1.182,4.666-119.833,19.272-258.24
						c13.47-127.65,38.422-298.669,80.799-388.498l-3.27-1.542c-42.594,90.29-67.626,261.746-81.126,389.681
						c-14.617,138.526-19.242,257.279-19.287,258.463L595.253,1548.454z"/>
				</g>
			</g>
			<g>
				<g>
					<path style="fill:#21111D;" d="M636.517,1532.59c0.033-0.771,3.47-77.912,14.806-156.079
						c14.904-102.78,36.445-160.609,62.295-167.237c15.263-3.909,32.714,10.125,51.879,41.719l3.091-1.876
						c-20.088-33.114-38.883-47.698-55.868-43.343c-27.769,7.118-49.631,64.396-64.979,170.243
						c-11.359,78.344-14.803,155.645-14.836,156.415L636.517,1532.59z"/>
				</g>
			</g>
			<g>
				<g>
					<path style="fill:#21111D;" d="M450.784,1592.485l3.588-0.442l-26.754-216.907c-8.537-69.214-34.947-134.57-76.377-189.005
						c-26.231-34.467-49.531-53.213-69.251-55.718c-9.313-1.185-17.88,1.251-25.47,7.234
						c-25.462,20.07-45.526,84.289-59.635,190.874c-10.473,79.115-13.591,153.364-13.621,154.104l3.612,0.148
						c0.121-2.952,12.748-295.677,71.881-342.288c6.801-5.361,14.464-7.539,22.776-6.487c18.723,2.379,41.208,20.654,66.831,54.32
						c41.042,53.927,67.207,118.68,75.665,187.259L450.784,1592.485z"/>
				</g>
			</g>
			<g>
				<g>
					
						<rect x="342.985" y="1322.973" transform="matrix(0.8887 -0.4585 0.4585 0.8887 -579.9004 308.1542)" style="fill:#21111D;" width="3.614" height="51.189"/>
				</g>
			</g>
			<g>
				<g>
					
						<rect x="342.984" y="1353.521" transform="matrix(0.8759 -0.4825 0.4825 0.8759 -621.9653 337.3082)" style="fill:#21111D;" width="3.615" height="48.642"/>
				</g>
			</g>
			<g>
				<g>
					
						<rect x="562.202" y="1074.683" transform="matrix(0.4145 -0.9101 0.9101 0.4145 -636.3207 1163.9532)" style="fill:#21111D;" width="48.399" height="3.615"/>
				</g>
			</g>
			<g>
				<g>
					
						<rect x="567.294" y="1102.643" transform="matrix(0.4847 -0.8747 0.8747 0.4847 -664.6385 1080.7474)" style="fill:#21111D;" width="35.23" height="3.615"/>
				</g>
			</g>
			<g>
				<g>
					
						<rect x="671.395" y="1138.823" transform="matrix(0.891 -0.4541 0.4541 0.891 -442.6478 437.9556)" style="fill:#21111D;" width="38.33" height="3.616"/>
				</g>
			</g>
			<g>
				<g>
					
						<rect x="671.763" y="1156.211" transform="matrix(0.8543 -0.5197 0.5197 0.8543 -502.2604 523.9336)" style="fill:#21111D;" width="23.648" height="3.614"/>
				</g>
			</g>
		</g>
		<g>
			<g>
				<path style="fill:#F75553;" d="M673.485,1520.334c0,0-6.374,350.163-100.164,341.949h-73.753h-11.842h-73.752
					c-93.789,8.214-100.163-341.949-100.163-341.949C402.565,1506.92,584.732,1506.92,673.485,1520.334z"/>
			</g>
		</g>
		<g>
			<g>
				
					<rect x="399.523" y="1545.99" transform="matrix(0.7261 -0.6876 0.6876 0.7261 -1004.3229 719.8085)" style="fill:#21111D;" width="3.615" height="149.047"/>
			</g>
		</g>
		<g>
			<g>
				
					<rect x="406.575" y="1625.517" transform="matrix(0.7546 -0.6562 0.6562 0.7546 -994.681 677.4948)" style="fill:#21111D;" width="3.615" height="85.982"/>
			</g>
		</g>
	</g>
	<g>
		<g>
			<polygon style="fill:#61A3C5;" points="872.374,1577.145 871.431,1577.145 774.254,1577.145 798.826,1866.497 871.431,1866.497 
				872.374,1866.497 947.602,1866.497 969.551,1577.145 			"/>
		</g>
		<g>
			<path style="fill:#21111D;" d="M943.615,1526.381h-71.24h-0.944h-71.24c-8.34,0-15.101,6.818-15.101,15.229h86.341h0.944h86.341
				C958.716,1533.199,951.955,1526.381,943.615,1526.381z"/>
		</g>
		<g>
			<path style="fill:#44243D;" d="M967.388,1549.42c-0.954-4.552-4.937-7.81-9.551-7.81h-85.462h-0.944h-85.462
				c-4.614,0-8.597,3.258-9.551,7.81l-8.103,38.69c-1.282,6.12,3.348,11.878,9.551,11.878h93.565h0.944h93.566
				c6.203,0,10.833-5.758,9.551-11.878L967.388,1549.42z"/>
		</g>
		<g>
			<polygon style="fill:#FEC786;" points="779.059,1665.981 785.421,1783.601 871.301,1783.601 872.504,1783.601 958.384,1783.601 
				964.746,1665.981 872.504,1665.981 871.301,1665.981 			"/>
		</g>
		<g>
			<path style="fill:#F3FFFE;" d="M922.336,1724.791c0,25.441-20.452,46.066-45.681,46.066c-25.229,0-45.681-20.625-45.681-46.066
				c0-25.442,20.452-46.067,45.681-46.067C901.884,1678.724,922.336,1699.349,922.336,1724.791z"/>
		</g>
		<g>
			<polygon style="fill:#21111D;" points="958.384,1785.263 783.847,1785.263 777.398,1666.07 780.72,1665.891 786.997,1781.938 
				958.384,1781.938 			"/>
		</g>
		<g>
			<g>
				
					<rect x="909.378" y="1619.048" transform="matrix(0.4929 -0.8701 0.8701 0.4929 -940.4263 1627.8036)" style="fill:#21111D;" width="33.861" height="3.325"/>
			</g>
			<g>
				
					<rect x="913.299" y="1637.725" transform="matrix(0.5029 -0.8643 0.8643 0.5029 -955.5327 1617.2483)" style="fill:#21111D;" width="30.02" height="3.327"/>
			</g>
		</g>
	</g>
	<g>
		<g>
			<g>
				<rect x="1924.887" y="1686.714" style="fill:#F75553;" width="487.703" height="92.726"/>
			</g>
		</g>
		<g>
			<g>
				<rect x="1979.978" y="1686.714" style="fill:#E24444;" width="33.312" height="92.726"/>
			</g>
		</g>
		<g>
			<g>
				<rect x="2326.79" y="1686.714" style="fill:#E24444;" width="33.311" height="92.726"/>
			</g>
		</g>
		<g>
			<g>
				
					<rect x="2234.131" y="1716.929" transform="matrix(0.8872 -0.4614 0.4614 0.8872 -539.21 1234.7511)" style="fill:#21111D;" width="42.552" height="6.216"/>
			</g>
		</g>
		<g>
			<g>
				
					<rect x="2257.906" y="1723.737" transform="matrix(0.8719 -0.4897 0.4897 0.8719 -553.439 1338.0707)" style="fill:#21111D;" width="45.757" height="6.214"/>
			</g>
		</g>
	</g>
	<g>
		<g>
			<g>
				<rect x="1724.602" y="1779.439" style="fill:#61A3C5;" width="639.262" height="82.514"/>
			</g>
		</g>
		<g>
			<g>
				<g>
					<rect x="1796.813" y="1779.439" style="fill:#61A3C5;" width="43.662" height="82.514"/>
				</g>
			</g>
		</g>
		<g>
			<g>
				<g>
					<rect x="2261.425" y="1779.439" style="fill:#61A3C5;" width="43.662" height="82.514"/>
				</g>
			</g>
		</g>
		<g>
			<g>
				<polygon style="fill:#21111D;" points="1860.602,1832.453 1857.732,1824.81 1895.48,1797.589 1898.35,1805.231 				"/>
			</g>
		</g>
		<g>
			<g>
				<polygon style="fill:#21111D;" points="1884.99,1843.734 1881.948,1836.227 1921.845,1805.179 1924.887,1812.687 				"/>
			</g>
		</g>
	</g>
	<g>
		<rect x="204.924" y="1862.426" style="fill:#21111D;" width="2240.816" height="7.061"/>
	</g>
</g>
</svg>
